# xmcd
#
# Track frame offsets:
#	150
#	15546
#	27888
#	45107
#	60395
#	77565
#	94020
#	111751
#	129741
#	150630
#	165530
#	186957
#
# Disc length: 2738 seconds
#
# Revision: 1
# Processed by: cddbd v1.5.2PL0 Copyright (c) Steve Scherf et al.
# Submitted via: audiograbber 1.83.01
#
DISCID=840ab00c
DTITLE=The Church Sisters - The Church Sisters
DYEAR=2017
DGENRE=Country
TTITLE0=I Feel the Blues Movin' In
TTITLE1=Speaking of the Devil
TTITLE2=Nightbird
TTITLE3=Move On
TTITLE4=Always Rains
TTITLE5=Love Will Be Enough
TTITLE6=Dead Man Walking
TTITLE7=New Love
TTITLE8=You Make Me
TTITLE9=Lucky You
TTITLE10=You Took Me There
TTITLE11=I Surrender All
EXTD=
EXTT0=
EXTT1=
EXTT2=
EXTT3=
EXTT4=
EXTT5=
EXTT6=
EXTT7=
EXTT8=
EXTT9=
EXTT10=
EXTT11=
PLAYORDER=
